<svg xmlns="http://www.w3.org/2000/svg" xmlns:xlink="http://www.w3.org/1999/xlink" viewBox="0 0 400 400"><defs><path id="a" d="M189.3 10.4h19.5V386h-19.5z"/></defs><clipPath id="b"><use xlink:href="#a" overflow="visible"/></clipPath><g clip-path="url(#b)"><path fill="#3B3863" d="M198.9 21.2c4.7 13.1 5 27.2 4.2 41.2-.6-13.8-2-27.6-4.2-41.2zm-2.7 172.7c0 2.9.1 5.8.1 8.6-.1-.8-.2-1.6-.2-2.4-1-11.6-.7-23.3.1-35-.2 9.7-.1 19.2 0 28.8zm7.6 106.4c-.9 19.4-3.6 38.8-8.2 57.7 1.6-16.2 4.1-32.3 6-48.5 1.3-11.3 2.2-22.7 2.2-34.1.4 8.3.3 16.6 0 24.9zm-5.5 85c.5-24.5 5-48.7 7.9-73 1.5-12 2.5-24.1 2.5-36.2 0-12.2-1.5-24.3-3.5-36.3-2-12.3-3.8-24.6-4.5-37.1-.7-12.5-.6-24.9-.2-37.4.9-24.8 3.3-49.4 4.5-74.2.6-13.9.9-27.9.1-41.8-.7-13-2.3-26-7.2-38.2-.2-.5-.7-.5-1.1-.3-.4-.1-1 .2-.9.8v.2c-.5-.1-1 .5-.7 1 .5 1 1 2 1.5 2.9 3.6 20 5.4 40.2 5.5 60.4-.1 1-.2 2-.2 2.9-2.1 25-4.1 50-6.2 75-1 12.4-1.9 24.9-1.5 37.4.3 8.7 1.3 17.3 2.6 25.9.2 4.3.6 8.6 1.1 12.8 1.4 11.8 3.7 23.4 4.3 35.3.6 12 0 24.1-1.1 36-2.1 21.6-5.9 43.1-7.5 64.7-1.2 4.6-2.6 9.2-4.1 13.8-.3.8 1 1.2 1.3.4.8-2.6 1.6-5.2 2.3-7.7-.1 2.9-.3 5.8-.3 8.7 0 .9 1.3.9 1.3 0 .1-5 .3-10 .7-15 11.2-42 13.2-85.5 6.5-128.4-1-6.7-2.2-13.3-3.2-20-1.2-17.6-1.1-35.3-.7-52.8.5-24.4 4.7-48.5 5.7-72.9.2-5.2.3-10.5.3-15.7.2-2.8.5-5.7.7-8.6 0 5.1-.1 10.2-.3 15.3-.8 24.8-3.2 49.5-4.4 74.2-1.2 24.4-1 48.9 2.8 73.2 1.9 12.3 4.3 24.5 4.9 37 .6 12.1-.1 24.2-1.4 36.2-2.8 27.2-8.3 54.2-8.9 81.6 0 .8 1.4.8 1.4-.1"/></g></svg>